# xmcd CD database file
#
# Track frame offsets:
#	150
#	11372
#	20741
#	33580
#	56012
#	68591
#	81621
#	94174
#	111414
#	126732
#	137818
#	155258
#	166892
#	177746
#	190357
#	203363
#	214906
#	227194
#	240790
#	252451
#	265138
#	275935
#	288795
#	302444
#	315172
#
# Disc length: 4413 seconds
#
# Revision: 0
# Processed by: cddbd v1.4PL0 Copyright (c) Steve Scherf et al.
# Submitted via: CDex 1.50beta10
#
DISCID=6c113b19
DTITLE=Varios - Pachanga Boogaloo Cd2
DYEAR=2000
DGENRE=Salsa
TTITLE0=Buffaretique - Charanhg En N. Y.
TTITLE1=Coca Y Sus Exploradores - Loockie Loockie
TTITLE2=Jovenes De Hierro - Ritmo Sabroso
TTITLE3=Gilberto Y Sexteto - Guantanamera
TTITLE4=Charlie Palmieri - Charanga La Duboney
TTITLE5=Garcia Garcia - Me
TTITLE6=Sexteto La Playa - Ni Tilingo Ni Tilingo
TTITLE7=Federico Y Su Combo - Federico Boogaloo
TTITLE8=Mongo Santamaria - A Monteadentro
TTITLE9=Randy Carlos - Cha Cha Con Pachanga
TTITLE10=Bobby Pauneto - Aguantando
TTITLE11=Doris Valladares - Ahora Vengo Del Colegio
TTITLE12=Leo Castañeda - A Callarse
TTITLE13=Bobby Montes - Guajira Josefina
TTITLE14=Manolin Morel - Sabrosa Descarga
TTITLE15=Mambo Coll
TTITLE16=Chorolo Y Su Combo - Venga Y Hagalo
TTITLE17=Combo Dailonex - Alegre Ritmo
TTITLE18=Hong Kong Mambo
TTITLE19=Descarga Sabrosa
TTITLE20=Pete Terrace - A La La E
TTITLE21=Olguita Y Modesto - Sza Sza Ole
TTITLE22=Jovenes De Hierro - Rico Moropo
TTITLE23=Mambo Con Cha Cha Cha
TTITLE24=Gil Suarez - Oh Shucks
EXTD=YEAR: 2000
EXTT0=
EXTT1=
EXTT2=
EXTT3=
EXTT4=
EXTT5=
EXTT6=
EXTT7=
EXTT8=
EXTT9=
EXTT10=
EXTT11=
EXTT12=
EXTT13=
EXTT14=
EXTT15=
EXTT16=
EXTT17=
EXTT18=
EXTT19=
EXTT20=
EXTT21=
EXTT22=
EXTT23=
EXTT24=
PLAYORDER=
